<?xml version="1.0" standalone="no"?><!DOCTYPE svg PUBLIC "-//W3C//DTD SVG 1.1//EN" "http://www.w3.org/Graphics/SVG/1.1/DTD/svg11.dtd"><svg t="1539847087022" class="icon" style="" viewBox="0 0 1024 1024" version="1.1" xmlns="http://www.w3.org/2000/svg" p-id="623" xmlns:xlink="http://www.w3.org/1999/xlink" width="200" height="200"><defs><style type="text/css"></style></defs><path d="M925 208.4c-4.3-8.6-14.6-12-23.2-7.7l-138.3 69.1c-8.5 4.3-12 14.7-7.7 23.2 3 6.1 9.1 9.6 15.5 9.6 2.6 0 5.2-0.6 7.7-1.8l44.1-22V389c0 9.5 7.7 17.3 17.3 17.3 9.5 0 17.3-7.7 17.3-17.3V261.4l59.6-29.8c8.5-4.3 11.9-14.7 7.7-23.2zM788.5 731.5V497.8c0-9.5-7.7-17.3-17.3-17.3-9.5 0-17.3 7.7-17.3 17.3v233.6l-79.9 64c-7.4 6-8.7 16.8-2.7 24.3 3.4 4.3 8.4 6.5 13.5 6.5 3.8 0 7.6-1.3 10.8-3.8l58.3-46.7v15.9c0 9.5 7.7 17.3 17.3 17.3 9.6 0 17.3-7.7 17.3-17.3v-15.9l58.3 46.7c3.2 2.5 7 3.8 10.8 3.8 5.1 0 10.1-2.2 13.5-6.5 6-7.5 4.8-18.3-2.7-24.3l-79.9-63.9zM200.9 618.8c-9.5 0-17.3 7.7-17.3 17.3v62l-29.5 29.5c-3.2 3.2-5.1 7.6-5.1 12.2v69.1c0 9.5 7.7 17.3 17.3 17.3 9.5 0 17.3-7.7 17.3-17.3v-62l29.5-29.5c3.2-3.2 5.1-7.6 5.1-12.2V636c0-9.5-7.7-17.2-17.3-17.2zM260.5 269.8l-138.3-69.1c-8.5-4.3-18.9-0.8-23.2 7.7-4.3 8.5-0.8 18.9 7.7 23.2l59.6 29.8V389c0 9.5 7.7 17.3 17.3 17.3 9.5 0 17.3-7.7 17.3-17.3V278.6l44.1 22.1c2.5 1.2 5.1 1.8 7.7 1.8 6.3 0 12.5-3.5 15.5-9.6 4.3-8.5 0.8-18.8-7.7-23.1z" fill="#24222D" p-id="624"></path><path d="M874.9 376.8H667.5c-9.5 0-17.3 7.7-17.3 17.3v103.7c0 9.5 7.7 17.3 17.3 17.3h207.4c9.5 0 17.3-7.7 17.3-17.3V394.1c0-9.6-7.7-17.3-17.3-17.3zM373.7 376.8H166.3c-9.5 0-17.3 7.7-17.3 17.3v242c0 9.5 7.7 17.3 17.3 17.3h207.4c9.5 0 17.3-7.7 17.3-17.3v-242c0-9.6-7.7-17.3-17.3-17.3z" fill="#FF6666" p-id="625"></path><path d="M702.1 618.8c0 105-85.1 190.1-190.1 190.1s-190.1-85.1-190.1-190.1S407 428.7 512 428.7c105-0.1 190.1 85.1 190.1 190.1z" fill="#FFFFFF" p-id="626"></path><path d="M512 826.2c-114.3 0-207.4-93.1-207.4-207.4 0-114.4 93.1-207.4 207.4-207.4 114.4 0 207.4 93 207.4 207.4 0 114.3-93 207.4-207.4 207.4z m0-380.3c-95.3 0-172.8 77.5-172.8 172.8 0 95.3 77.5 172.8 172.8 172.8 95.3 0 172.8-77.5 172.8-172.8 0-95.2-77.5-172.8-172.8-172.8z" fill="#040000" p-id="627"></path><path d="M702.1 618.8c0 105-85.1 190.1-190.1 190.1s-190.1-85.1-190.1-190.1S407 428.7 512 428.7c105-0.1 190.1 85.1 190.1 190.1z" fill="#FFFFFF" p-id="628"></path><path d="M512 826.2c-114.3 0-207.4-93.1-207.4-207.4 0-114.4 93.1-207.4 207.4-207.4 114.4 0 207.4 93 207.4 207.4 0 114.3-93 207.4-207.4 207.4z m0-380.3c-95.3 0-172.8 77.5-172.8 172.8 0 95.3 77.5 172.8 172.8 172.8 95.3 0 172.8-77.5 172.8-172.8 0-95.2-77.5-172.8-172.8-172.8z" fill="#FF6666" p-id="629"></path><path d="M477.4 307.7H304.6c-9.5 0-17.3 7.7-17.3 17.3v138.3c0 9.5 7.7 17.3 17.3 17.3h172.8c9.5 0 17.3-7.7 17.3-17.3V325c0-9.6-7.7-17.3-17.3-17.3zM719.4 307.7H546.6c-9.6 0-17.3 7.7-17.3 17.3v138.3c0 9.5 7.7 17.3 17.3 17.3h172.8c9.6 0 17.3-7.7 17.3-17.3V325c0-9.6-7.7-17.3-17.3-17.3z" fill="#FF6666" p-id="630"></path><path d="M408.3 411.4v-34.6c0-9.5-7.7-17.3-17.3-17.3-9.5 0-17.3 7.7-17.3 17.3v34.6c0 9.5 7.7 17.3 17.3 17.3 9.6-0.1 17.3-7.8 17.3-17.3zM633 359.5c-9.5 0-17.3 7.7-17.3 17.3v34.6c0 9.5 7.7 17.3 17.3 17.3 9.5 0 17.3-7.7 17.3-17.3v-34.6c0-9.5-7.8-17.3-17.3-17.3zM270 445.9c-9.5 0-17.3 7.7-17.3 17.3v103.7c0 9.5 7.7 17.3 17.3 17.3 9.5 0 17.3-7.7 17.3-17.3V463.2c0-9.5-7.7-17.3-17.3-17.3zM771.2 411.4c-9.5 0-17.3 7.7-17.3 17.3v34.6c0 9.5 7.7 17.3 17.3 17.3 9.5 0 17.3-7.7 17.3-17.3v-34.6c0-9.6-7.7-17.3-17.3-17.3zM613 579.5l-59.1-8.6-26.4-53.5c-2.9-5.9-8.9-9.6-15.5-9.6s-12.6 3.7-15.5 9.6L470.1 571l-59.1 8.6c-6.5 1-11.9 5.5-14 11.8-2 6.3-0.3 13.1 4.4 17.7l42.8 41.6-10.1 58.8c-1.1 6.5 1.5 13.1 6.9 16.9 5.3 3.9 12.4 4.4 18.2 1.3L512 700l52.9 27.8c2.5 1.3 5.3 2 8 2h0.1c9.5 0 17.2-7.7 17.2-17.3 0-1.3-0.2-2.6-0.4-3.9l-9.9-57.9 42.8-41.6c4.7-4.6 6.4-11.5 4.4-17.7-2.2-6.3-7.6-10.9-14.1-11.9z" fill="#24222D" p-id="631"></path></svg>